<svg xmlns="http://www.w3.org/2000/svg" width="1100" height="688" viewBox="0 0 1600 1000" role="img" aria-labelledby="title desc">
  <title id="title">Relayna AKS observability architecture</title>
  <desc id="desc">Overall AKS architecture for Relayna registered services, workers, Redis, RabbitMQ, Loki, Alloy, Prometheus, kube-state-metrics, and Studio.</desc>
  <defs>
    <marker id="arrow-blue" markerWidth="10" markerHeight="10" refX="9" refY="3" orient="auto" markerUnits="strokeWidth">
      <path d="M0,0 L0,6 L9,3 z" fill="#2563eb" />
    </marker>
    <marker id="arrow-green" markerWidth="10" markerHeight="10" refX="9" refY="3" orient="auto" markerUnits="strokeWidth">
      <path d="M0,0 L0,6 L9,3 z" fill="#16a34a" />
    </marker>
    <marker id="arrow-purple" markerWidth="10" markerHeight="10" refX="9" refY="3" orient="auto" markerUnits="strokeWidth">
      <path d="M0,0 L0,6 L9,3 z" fill="#7c3aed" />
    </marker>
    <marker id="arrow-orange" markerWidth="10" markerHeight="10" refX="9" refY="3" orient="auto" markerUnits="strokeWidth">
      <path d="M0,0 L0,6 L9,3 z" fill="#ea580c" />
    </marker>
    <filter id="shadow" x="-10%" y="-10%" width="120%" height="130%">
      <feDropShadow dx="0" dy="4" stdDeviation="5" flood-color="#0f172a" flood-opacity="0.13" />
    </filter>
    <style>
      .bg { fill: #f8fafc; }
      .cluster { fill: #ffffff; stroke: #cbd5e1; stroke-width: 2; rx: 18; }
      .cluster-fill { fill: #fdfefe; stroke: #cbd5e1; stroke-width: 2; rx: 16; }
      .title { font: 800 30px Inter, Arial, sans-serif; fill: #0f172a; }
      .subtitle { font: 500 15px Inter, Arial, sans-serif; fill: #475569; }
      .cluster-title { font: 800 20px Inter, Arial, sans-serif; fill: #0f172a; }
      .cluster-subtitle { font: 500 12px Inter, Arial, sans-serif; fill: #64748b; }
      .node { fill: #ffffff; stroke-width: 2.5; rx: 12; filter: url(#shadow); }
      .node-title { font: 800 15px Inter, Arial, sans-serif; fill: #0f172a; }
      .node-body { font: 500 12px Inter, Arial, sans-serif; fill: #475569; }
      .small { font: 600 11px Inter, Arial, sans-serif; fill: #475569; }
      .legend-title { font: 800 18px Inter, Arial, sans-serif; fill: #0f172a; }
      .legend-text { font: 600 12px Inter, Arial, sans-serif; fill: #334155; }
      .api { stroke: #2563eb; }
      .worker { stroke: #0d9488; }
      .data { stroke: #7c3aed; }
      .obs { stroke: #ea580c; }
      .studio { stroke: #16a34a; }
      .arrow { fill: none; stroke-width: 3; stroke-linecap: round; stroke-linejoin: round; }
      .arrow-blue { stroke: #2563eb; marker-end: url(#arrow-blue); }
      .arrow-green { stroke: #16a34a; marker-end: url(#arrow-green); }
      .arrow-purple { stroke: #7c3aed; marker-end: url(#arrow-purple); }
      .arrow-orange { stroke: #ea580c; marker-end: url(#arrow-orange); }
      .dash { stroke-dasharray: 9 8; }
      .badge { fill: #ffffff; stroke-width: 2; }
      .badge-text { font: 800 12px Inter, Arial, sans-serif; }
    </style>
  </defs>

  <rect class="bg" width="1600" height="1000" />
  <text x="56" y="58" class="title">Relayna on AKS: complete Studio observability system</text>
  <text x="56" y="88" class="subtitle">Logs, Kubernetes infrastructure metrics, aggregate Relayna runtime metrics, exact task resource observations, and Studio query paths.</text>

  <rect x="40" y="118" width="1520" height="816" class="cluster" />
  <text x="68" y="154" class="cluster-title">AKS cluster</text>
  <text x="68" y="176" class="cluster-subtitle">Internal DNS, private service traffic, stable pod labels, and Prometheus scrape annotations</text>

  <rect x="78" y="208" width="360" height="366" class="cluster-fill" />
  <text x="104" y="242" class="cluster-title">Application namespaces</text>
  <text x="104" y="264" class="cluster-subtitle">Registered Relayna service APIs and workers</text>

  <rect x="492" y="208" width="318" height="366" class="cluster-fill" />
  <text x="518" y="242" class="cluster-title">Relayna data plane</text>
  <text x="518" y="264" class="cluster-subtitle">Shared runtime dependencies</text>

  <rect x="864" y="208" width="642" height="366" class="cluster-fill" />
  <text x="890" y="242" class="cluster-title">observability namespace</text>
  <text x="890" y="264" class="cluster-subtitle">Backends queried by Studio backend</text>

  <rect x="292" y="660" width="510" height="198" class="cluster-fill" />
  <text x="318" y="694" class="cluster-title">Studio namespace</text>
  <text x="318" y="716" class="cluster-subtitle">Control plane API and operator UI</text>

  <path d="M248 350 H528" class="arrow arrow-purple" />
  <path d="M418 350 H666" class="arrow arrow-purple" />
  <path d="M418 404 H666" class="arrow arrow-purple" />
  <path d="M248 404 H528" class="arrow arrow-purple" />

  <path d="M178 304 V286 H898 V344" class="arrow arrow-orange" />
  <path d="M348 304 V286 H898" class="arrow arrow-orange" />
  <path d="M1022 370 H1060" class="arrow arrow-orange" />

  <path d="M178 436 V602 H1284 V436" class="arrow arrow-blue dash" />
  <path d="M348 436 V602 H1284" class="arrow arrow-blue dash" />
  <path d="M657 738 V602 H1284" class="arrow arrow-blue dash" />
  <path d="M1421 436 V602 H1284 V436" class="arrow arrow-blue dash" />

  <path d="M484 792 H570" class="arrow arrow-green" />
  <path d="M657 738 V632 H178 V436" class="arrow arrow-green" />
  <path d="M657 738 V616 H584 V436" class="arrow arrow-green" />
  <path d="M744 792 H1122 V436" class="arrow arrow-green" />
  <path d="M744 824 H1284 V436" class="arrow arrow-green" />

  <rect x="108" y="304" width="140" height="132" class="node api" />
  <text x="134" y="334" class="node-title">Service APIs</text>
  <text x="130" y="360" class="node-body">FastAPI routes</text>
  <text x="130" y="380" class="node-body">Capabilities</text>
  <text x="130" y="400" class="node-body">Status/history</text>
  <text x="130" y="420" class="node-body">/metrics</text>

  <rect x="278" y="304" width="140" height="132" class="node worker" />
  <text x="312" y="334" class="node-title">Workers</text>
  <text x="298" y="360" class="node-body">TaskConsumer</text>
  <text x="298" y="380" class="node-body">Workflows</text>
  <text x="298" y="400" class="node-body">CPU/RSS samples</text>
  <text x="298" y="420" class="node-body">:8001 /metrics</text>

  <rect x="90" y="474" width="328" height="64" rx="12" fill="#eff6ff" stroke="#bfdbfe" stroke-width="1.5" />
  <text x="112" y="500" class="small">Pod labels: service=&lt;service_id&gt;, app=&lt;api-or-worker&gt;</text>
  <text x="112" y="522" class="small">Annotations: prometheus.io/scrape, port, path</text>

  <rect x="528" y="316" width="112" height="120" class="node data" />
  <text x="560" y="346" class="node-title">Redis</text>
  <text x="550" y="372" class="node-body">Status</text>
  <text x="550" y="392" class="node-body">History</text>
  <text x="550" y="412" class="node-body">DLQ index</text>
  <text x="550" y="432" class="node-body">Observations</text>

  <rect x="666" y="316" width="112" height="120" class="node data" />
  <text x="688" y="346" class="node-title">RabbitMQ</text>
  <text x="688" y="372" class="node-body">Tasks</text>
  <text x="688" y="392" class="node-body">Status fanout</text>
  <text x="688" y="412" class="node-body">Retry</text>
  <text x="688" y="432" class="node-body">DLQ</text>

  <rect x="898" y="304" width="124" height="132" class="node obs" />
  <text x="942" y="334" class="node-title">Alloy</text>
  <text x="920" y="360" class="node-body">DaemonSet</text>
  <text x="920" y="380" class="node-body">CRI parse</text>
  <text x="920" y="400" class="node-body">K8s metadata</text>
  <text x="920" y="420" class="node-body">Push logs</text>

  <rect x="1060" y="304" width="124" height="132" class="node obs" />
  <text x="1100" y="334" class="node-title">Loki</text>
  <text x="1082" y="360" class="node-body">Log storage</text>
  <text x="1082" y="380" class="node-body">LogQL</text>
  <text x="1082" y="400" class="node-body">Service logs</text>
  <text x="1082" y="420" class="node-body">Task logs</text>

  <rect x="1222" y="304" width="124" height="132" class="node obs" />
  <text x="1245" y="334" class="node-title">Prometheus</text>
  <text x="1244" y="360" class="node-body">PromQL</text>
  <text x="1244" y="380" class="node-body">cAdvisor</text>
  <text x="1244" y="400" class="node-body">Runtime</text>
  <text x="1244" y="420" class="node-body">/metrics</text>

  <rect x="1368" y="304" width="106" height="132" class="node obs" />
  <text x="1384" y="334" class="node-title">kube-state</text>
  <text x="1389" y="360" class="node-body">Requests</text>
  <text x="1389" y="380" class="node-body">Limits</text>
  <text x="1389" y="400" class="node-body">Ready</text>
  <text x="1389" y="420" class="node-body">OOM/restarts</text>

  <rect x="326" y="754" width="158" height="76" class="node studio" />
  <text x="352" y="784" class="node-title">Studio frontend</text>
  <text x="354" y="810" class="node-body">Operator UI</text>

  <rect x="570" y="738" width="174" height="108" class="node studio" />
  <text x="594" y="768" class="node-title">Studio backend</text>
  <text x="592" y="794" class="node-body">Registry</text>
  <text x="592" y="814" class="node-body">Federation</text>
  <text x="592" y="834" class="node-body">Loki + Prom proxy</text>

  <circle cx="280" cy="350" r="13" class="badge" stroke="#7c3aed" />
  <text x="276" y="355" class="badge-text" fill="#7c3aed">1</text>
  <circle cx="860" cy="286" r="13" class="badge" stroke="#ea580c" />
  <text x="856" y="291" class="badge-text" fill="#ea580c">2</text>
  <circle cx="1210" cy="602" r="13" class="badge" stroke="#2563eb" />
  <text x="1206" y="607" class="badge-text" fill="#2563eb">3</text>
  <circle cx="810" cy="792" r="13" class="badge" stroke="#16a34a" />
  <text x="806" y="797" class="badge-text" fill="#16a34a">4</text>

  <rect x="914" y="664" width="418" height="178" rx="14" fill="#ffffff" stroke="#cbd5e1" stroke-width="2" />
  <text x="940" y="700" class="legend-title">Flow legend</text>
  <circle cx="950" cy="730" r="6" fill="#7c3aed" />
  <text x="968" y="734" class="legend-text">Runtime data: RabbitMQ tasks/status and Redis status/history/observations</text>
  <circle cx="950" cy="760" r="6" fill="#ea580c" />
  <text x="968" y="764" class="legend-text">Logs: pod stdout JSON to Alloy, then Loki</text>
  <circle cx="950" cy="790" r="6" fill="#2563eb" />
  <text x="968" y="794" class="legend-text">Metrics: Relayna /metrics, cAdvisor, and kube-state-metrics to Prometheus</text>
  <circle cx="950" cy="820" r="6" fill="#16a34a" />
  <text x="968" y="824" class="legend-text">Studio queries: frontend to backend; backend to services, Redis, Loki, Prometheus</text>

  <rect x="80" y="890" width="1260" height="36" rx="10" fill="#e2e8f0" stroke="#cbd5e1" />
  <text x="104" y="913" class="small">Studio frontend never talks directly to Redis, RabbitMQ, Loki, or Prometheus. Studio backend owns egress policy checks and normalized responses.</text>
</svg>
